<svg xmlns="http://www.w3.org/2000/svg" version="1.1" xmlns:xlink="http://www.w3.org/1999/xlink" xmlns:svgjs="http://svgjs.dev/svgjs" width="308.7612359841165"
   height="304.915625" viewBox="0 0 1000 1000"><rect width="1000" height="1000" fill="#ffffff"></rect><g transform="matrix(0.7,0,0,0.7,150.00077059784894,106.25)"><svg viewBox="0 0 320 360" data-background-color="#ed2647" preserveAspectRatio="xMidYMid meet" height="1125" width="1000" xmlns="http://www.w3.org/2000/svg" xmlns:xlink="http://www.w3.org/1999/xlink"><g id="tight-bounds" transform="matrix(1,0,0,1,0.00010353528136874957,0)"><svg viewBox="0 0 320 360" height="360" width="320"><g><svg></svg></g><g><svg viewBox="0 0 320 360" height="360" width="320"><g><path xmlns="http://www.w3.org/2000/svg" d="M307.925 179.999l6.575-11.387c11.322-19.607 4.604-44.679-15.003-56.001l-11.387-6.575v-13.151c0-22.639-18.354-40.994-40.994-40.994h-13.151l-6.575-11.387c-11.322-19.607-36.393-26.325-56.001-15.003l-11.39 6.572-11.387-6.576c-19.607-11.318-44.679-4.6-56.001 15.007l-6.575 11.387h-13.151c-22.639 0-40.994 18.354-40.994 40.994v13.151l-11.387 6.575c-19.607 11.322-26.325 36.393-15.003 56.001l6.572 11.387-6.576 11.387c-11.318 19.607-4.6 44.679 15.007 56l11.387 6.576v13.15c0 22.639 18.354 40.994 40.994 40.994h13.151l6.575 11.387c11.322 19.607 36.393 26.325 56.001 15.003l11.387-6.571 11.387 6.575c19.607 11.322 44.679 4.604 56-15.003l6.576-11.387h13.15c22.639 0 40.994-18.354 40.994-40.994v-13.151l11.387-6.575c19.607-11.322 26.325-36.393 15.003-56.001zM297.702 115.716c8.655 4.996 14.842 13.062 17.428 22.713 2.586 9.65 1.261 19.734-3.735 28.384l-5.538 9.596-17.747-30.74v-35.494zM251.155 271.155l-57.791 33.365h-66.731l-57.791-33.365-33.365-57.791v-66.731l33.365-57.791 57.791-33.365h66.731l57.791 33.365 33.365 57.791v66.731zM284.517 220.539v31.351l-27.151 15.676zM247.566 277.366l-15.676 27.151h-31.351zM187.15 308.106l-27.151 15.676-27.151-15.676zM119.459 304.517h-31.352l-15.676-27.151zM62.632 267.566l-27.151-15.676v-31.351zM31.891 207.15l-15.675-27.151 15.675-27.151zM35.481 139.459v-31.352l27.151-15.676zM72.431 82.632l15.676-27.151h31.352zM132.848 51.891l27.151-15.675 27.151 15.675zM200.539 55.481h31.351l15.676 27.151zM257.366 92.431l27.151 15.676v31.352zM288.106 152.848l15.676 27.151-15.676 27.151zM247.112 55.481c9.992 0 19.384 3.889 26.452 10.956 7.063 7.063 10.956 16.46 10.957 26.452v11.079l-30.741-17.747-17.747-30.74zM173.18 28.606c8.655-4.996 18.735-6.322 28.385-3.735 9.65 2.586 17.716 8.777 22.712 17.428l5.538 9.596h-35.494l-30.741-17.747zM95.716 42.295c4.996-8.655 13.062-14.842 22.713-17.428 9.65-2.586 19.734-1.261 28.384 3.736l9.596 5.537-30.74 17.747h-35.494zM35.481 92.885c0-9.992 3.889-19.384 10.956-26.452 7.063-7.063 16.46-10.956 26.452-10.956h11.079l-17.747 30.74-30.74 17.747zM8.606 166.817c-4.996-8.655-6.322-18.735-3.735-28.385 2.586-9.65 8.777-17.716 17.428-22.712l9.596-5.538v35.495l-17.747 30.74zM22.295 244.281c-8.655-4.996-14.842-13.062-17.428-22.712-2.586-9.65-1.261-19.734 3.736-28.385l5.537-9.596 17.747 30.74v35.495zM72.885 304.517c-9.992 0-19.384-3.889-26.452-10.957-7.063-7.063-10.956-16.46-10.956-26.451v-11.08l30.74 17.747 17.747 30.741zM146.817 331.391c-8.655 4.996-18.735 6.322-28.385 3.735-9.65-2.586-17.716-8.777-22.712-17.428l-5.538-9.596h35.495l30.74 17.747zM224.281 317.702c-4.996 8.655-13.062 14.842-22.712 17.428-9.65 2.586-19.734 1.261-28.385-3.735l-9.596-5.538 30.74-17.747h35.495zM284.517 267.112c0 9.992-3.889 19.384-10.957 26.452-7.063 7.063-16.46 10.956-26.451 10.957h-11.08l17.747-30.741 30.741-17.747zM315.13 221.565c-2.586 9.65-8.777 17.716-17.428 22.712l-9.596 5.538v-35.494l17.747-30.741 5.538 9.596c4.996 8.658 6.326 18.739 3.739 28.389z" fill="#000000" fill-rule="nonzero" stroke="none" stroke-width="1" stroke-linecap="butt" stroke-linejoin="miter" stroke-miterlimit="10" stroke-dasharray="" stroke-dashoffset="0" font-family="none" font-weight="none" font-size="none" text-anchor="none" style="mix-blend-mode: normal" data-fill-palette-color="tertiary"></path></g><g transform="matrix(1,0,0,1,64,153.03578174413022)"><svg viewBox="0 0 192 53.92843651173958" height="53.92843651173958" width="192"><g><svg viewBox="0 0 320.8884387290134 90.13026976744185" height="53.92843651173958" width="192"><g transform="matrix(1,0,0,1,127.92843872901344,11.168818194602203)"><svg viewBox="0 0 192.95999999999998 67.79263337823744" height="67.79263337823744" width="192.95999999999998"><g id="textblocktransform"><svg viewBox="0 0 192.95999999999998 67.79263337823744" height="67.79263337823744" width="192.95999999999998" id="textblock"><g><rect width="192.95999999999998" height="3.3154386344831415" x="0" y="40.66987840044401" fill="#000000" opacity="1" stroke-width="0" stroke="transparent" fill-opacity="1" class="rect-o-0" data-fill-palette-color="primary" rx="1%" id="o-0" data-palette-color="#8d021f"></rect></g><g transform="matrix(1,0,0,1,0.47999999999998977,0)"><svg viewBox="0 0 192 36.764256972387955" height="36.764256972387955" width="192"><g transform="matrix(1,0,0,1,0,0)"><svg width="192" viewBox="4.659999847412109 -33.08000183105469 175.94000244140625 33.69000244140625" height="36.764256972387955" data-palette-color="#8d021f"><path d="M12.11 0.61L12.11 0.61Q8.15 0.61 4.66-0.02L4.66-0.02 4.66-32.69Q7.89-33.08 12.15-33.08 16.41-33.08 19.86-31.92 23.32-30.76 25.63-28.61L25.63-28.61Q30.32-24.32 30.32-16.58L30.32-16.58Q30.32-7.91 25.1-3.42L25.1-3.42Q20.41 0.61 12.11 0.61ZM11.01-27.1L11.01-5.35Q12.6-5.05 14.18-5.05 15.77-5.05 17.6-5.68 19.43-6.3 20.78-7.62L20.78-7.62Q23.66-10.4 23.66-15.72L23.66-15.72Q23.66-24.46 17.29-26.46L17.29-26.46Q15.19-27.12 12.43-27.12L12.43-27.12 11.77-27.12Q11.4-27.12 11.01-27.1L11.01-27.1ZM50.71-12.21L40.67-12.21Q38.82-12.21 37.64-12.08L37.64-12.08 37.72-18.12Q38.28-17.97 40.94-17.97L40.94-17.97 50.44-17.97Q53.12-17.97 53.66-18.12L53.66-18.12 53.73-12.08Q52.56-12.21 50.71-12.21L50.71-12.21ZM76.85-33.08L76.85-33.08Q81.42-33.08 84.64-31.49L84.64-31.49 84.64-24.02 84.59-23.97Q83.22-26.07 78.83-26.76L78.83-26.76Q77.53-26.98 75.56-26.98 73.58-26.98 71.67-26.23 69.77-25.49 68.55-24.12L68.55-24.12Q66.18-21.46 66.18-16.53L66.18-16.53Q66.18-10.79 69.18-7.98L69.18-7.98Q71.67-5.64 75.78-5.64L75.78-5.64Q80.41-5.64 83.3-7.62L83.3-7.62Q84.35-8.33 85.08-9.38L85.08-9.38 85.15-9.33 85.15-2.49Q81.42 0.61 75.09 0.61L75.09 0.61Q67.65 0.61 63.42-4.13L63.42-4.13Q59.37-8.64 59.37-16.09L59.37-16.09Q59.37-23.97 63.81-28.52L63.81-28.52Q68.31-33.08 76.85-33.08ZM93.96-3.86Q91.74-5.98 90.46-8.96 89.18-11.94 89.18-15.49 89.18-19.04 90.37-22.22 91.57-25.39 93.79-27.81 96.01-30.22 99.16-31.65 102.31-33.08 106.22-33.08L106.22-33.08Q112.96-33.08 117.57-28.83L117.57-28.83Q122.5-24.29 122.5-16.58L122.5-16.58Q122.5-9.11 117.42-4.15L117.42-4.15Q114.3-1.1 109.98 0.05L109.98 0.05Q107.85 0.61 105.01 0.61 102.17 0.61 99.17-0.56 96.18-1.73 93.96-3.86ZM95.96-15.82L95.96-15.82Q95.96-13.55 96.72-11.65 97.48-9.74 98.82-8.37L98.82-8.37Q101.68-5.49 106.17-5.49L106.17-5.49Q110.44-5.49 113.03-8.25L113.03-8.25Q115.67-11.11 115.67-16.04L115.67-16.04Q115.67-20.68 113.15-23.78L113.15-23.78Q110.44-27.1 105.73-27.1L105.73-27.1Q101.16-27.1 98.48-23.73L98.48-23.73Q95.96-20.58 95.96-15.82ZM136.68 0.61L136.68 0.61Q132.73 0.61 129.24-0.02L129.24-0.02 129.24-32.69Q132.46-33.08 136.72-33.08 140.98-33.08 144.44-31.92 147.89-30.76 150.21-28.61L150.21-28.61Q154.9-24.32 154.9-16.58L154.9-16.58Q154.9-7.91 149.67-3.42L149.67-3.42Q144.99 0.61 136.68 0.61ZM135.59-27.1L135.59-5.35Q137.17-5.05 138.76-5.05 140.35-5.05 142.18-5.68 144.01-6.3 145.35-7.62L145.35-7.62Q148.23-10.4 148.23-15.72L148.23-15.72Q148.23-24.46 141.86-26.46L141.86-26.46Q139.76-27.12 137-27.12L137-27.12 136.34-27.12Q135.98-27.12 135.59-27.1L135.59-27.1ZM168.44-5.86L178.41-5.86Q179.92-5.86 180.51-6.15L180.51-6.15 180.6-6.13 180.36 0 162.07 0 162.07-32.64Q162.73-32.59 163.54-32.57L163.54-32.57 165.25-32.52Q166.96-32.47 168.96-32.47L168.96-32.47Q174.55-32.47 180.02-32.67L180.02-32.67Q179.75-30.52 179.75-26.93L179.75-26.93Q179.75-26.54 179.8-26.34L179.8-26.34 179.75-26.27Q178.48-26.64 176.13-26.64L176.13-26.64 168.44-26.64 168.44-20.41 174.23-20.41Q176.92-20.41 177.45-20.56L177.45-20.56 177.53-14.53Q176.35-14.65 174.5-14.65L174.5-14.65 168.44-14.65 168.44-5.86Z" opacity="1" transform="matrix(1,0,0,1,0,0)" fill="#000000" class="wordmark-text-0" data-fill-palette-color="primary" id="text-0"></path></svg></g></svg></g><g transform="matrix(1,0,0,1,0,47.890938462983215)"><svg viewBox="0 0 112.72319999999999 19.901694915254236" height="19.901694915254236" width="112.72319999999999"><g transform="matrix(1,0,0,1,0,0)"><svg width="112.72319999999999" viewBox="1.75 -37.5 283.17999267578125 50" height="19.901694915254236" data-palette-color="#8d021f"><path d="M1.75 0L10.55 0Q15.85 0 19.53-1.63 23.2-3.25 25.5-5.8L25.5-5.8Q27.8-8.35 28.83-11.45 29.85-14.55 29.85-17.5L29.85-17.5Q29.85-21.5 28.45-24.75 27.05-28 24.65-30.3L24.65-30.3Q22.25-32.55 19.05-33.77 15.85-35 12.25-35L12.25-35 1.75-35 1.75-33.65 5.15-33.65 5.15-1.35 1.75-1.35 1.75 0ZM6.55-1.35L6.55-33.65 12.4-33.65Q15.65-33.65 18.57-32.52 21.5-31.4 23.75-29.3L23.75-29.3Q25.95-27.2 27.23-24.2 28.5-21.2 28.5-17.5L28.5-17.5Q28.5-14.6 27.5-11.73 26.5-8.85 24.4-6.6L24.4-6.6Q22.25-4.25 18.98-2.8 15.7-1.35 11.15-1.35L11.15-1.35 6.55-1.35ZM51.6 0L56.6 0 56.6-1.35 52.9-1.35 52.9-18.75 51.8-18.75Q51.75-17.45 51.7-16.2 51.65-14.95 51.6-13.7L51.6-13.7Q50.65-16 48.4-17.57 46.15-19.15 43.1-19.15L43.1-19.15Q41.05-19.15 39.27-18.38 37.5-17.6 36.2-16.3L36.2-16.3Q34.85-15 34.1-13.2 33.35-11.4 33.35-9.4L33.35-9.4Q33.35-7.35 34.1-5.6 34.85-3.85 36.2-2.55L36.2-2.55Q37.5-1.2 39.27-0.43 41.05 0.35 43.1 0.35L43.1 0.35Q44.65 0.35 46.02-0.08 47.4-0.5 48.5-1.3L48.5-1.3Q49.6-2 50.4-2.98 51.2-3.95 51.65-5.05L51.65-5.05Q51.65-4.35 51.62-3.7 51.6-3.05 51.6-2.35L51.6-2.35 51.6 0ZM43.1-17.8L43.1-17.8Q44.85-17.8 46.37-17.15 47.9-16.5 49.05-15.35L49.05-15.35Q50.2-14.2 50.85-12.68 51.5-11.15 51.5-9.4L51.5-9.4Q51.5-7.6 50.85-6.1 50.2-4.6 49.05-3.45L49.05-3.45Q47.9-2.35 46.37-1.7 44.85-1.05 43.1-1.05L43.1-1.05Q41.4-1.05 39.9-1.68 38.4-2.3 37.3-3.4L37.3-3.4Q36.1-4.5 35.42-6.05 34.75-7.6 34.75-9.4L34.75-9.4Q34.75-11.1 35.4-12.63 36.05-14.15 37.15-15.3L37.15-15.3Q38.3-16.45 39.82-17.13 41.35-17.8 43.1-17.8ZM60.09 0L69.3 0 69.3-1.35 65.39-1.35 65.39-10.6Q65.39-12.15 66.05-13.48 66.69-14.8 67.84-15.75L67.84-15.75Q68.94-16.65 70.39-17.2 71.84-17.75 73.5-17.75L73.5-17.75Q75.59-17.65 76.77-16.38 77.94-15.1 78.05-13.4L78.05-13.4 78.05-1.35 74.09-1.35 74.09 0 83.3 0 83.3-1.35 79.44-1.35 79.44-10.85Q79.44-12.35 80.14-13.6 80.84-14.85 81.94-15.8L81.94-15.8Q83.05-16.7 84.47-17.23 85.89-17.75 87.5-17.75L87.5-17.75Q89.64-17.65 90.8-16.38 91.94-15.1 92.05-13.4L92.05-13.4 92.05-1.35 88.09-1.35 88.09 0 97.3 0 97.3-1.35 93.44-1.35 93.44-13.5Q93.34-16 91.77-17.55 90.19-19.1 87.5-19.1L87.5-19.1Q84.75-19.1 82.59-17.75 80.44-16.4 79.39-14.1L79.39-14.1Q79.14-16.35 77.57-17.73 76-19.1 73.5-19.1L73.5-19.1Q70.64-19.1 68.47-17.68 66.3-16.25 65.25-13.85L65.25-13.85Q65.25-14.65 65.22-15.23 65.19-15.8 65.14-16.55L65.14-16.55 65.09-18.75 60.34-18.75 60.34-17.4 63.99-17.4 63.99-1.35 60.09-1.35 60.09 0ZM100.79 0L109.99 0 109.99-1.35 106.09-1.35 106.09-10.6Q106.09-12.15 106.74-13.48 107.39-14.8 108.54-15.75L108.54-15.75Q109.64-16.65 111.09-17.2 112.54-17.75 114.19-17.75L114.19-17.75Q116.29-17.65 117.47-16.38 118.64-15.1 118.74-13.4L118.74-13.4 118.74-1.35 114.79-1.35 114.79 0 123.99 0 123.99-1.35 120.14-1.35 120.14-10.85Q120.14-12.35 120.84-13.6 121.54-14.85 122.64-15.8L122.64-15.8Q123.74-16.7 125.17-17.23 126.59-17.75 128.19-17.75L128.19-17.75Q130.34-17.65 131.49-16.38 132.64-15.1 132.74-13.4L132.74-13.4 132.74-1.35 128.79-1.35 128.79 0 137.99 0 137.99-1.35 134.14-1.35 134.14-13.5Q134.04-16 132.47-17.55 130.89-19.1 128.19-19.1L128.19-19.1Q125.44-19.1 123.29-17.75 121.14-16.4 120.09-14.1L120.09-14.1Q119.84-16.35 118.27-17.73 116.69-19.1 114.19-19.1L114.19-19.1Q111.34-19.1 109.17-17.68 106.99-16.25 105.94-13.85L105.94-13.85Q105.94-14.65 105.92-15.23 105.89-15.8 105.84-16.55L105.84-16.55 105.79-18.75 101.04-18.75 101.04-17.4 104.69-17.4 104.69-1.35 100.79-1.35 100.79 0ZM144.34 12.5L153.54 12.5 153.54 11.15 150.09 11.15Q153.69 3.95 157.19-3.13 160.69-10.2 164.29-17.4L164.29-17.4 167.74-17.4 167.74-18.75 159.89-18.75 159.89-17.4 162.74-17.4Q160.69-13.35 158.67-9.28 156.64-5.2 154.74-1.3L154.74-1.3Q152.84-5.35 150.81-9.35 148.79-13.35 146.79-17.4L146.79-17.4 150.14-17.4 150.14-18.75 141.49-18.75 141.49-17.4 145.19-17.4Q147.39-12.95 149.56-8.6 151.74-4.25 153.99 0.15L153.99 0.15Q152.59 2.85 151.22 5.63 149.84 8.4 148.49 11.15L148.49 11.15 144.34 11.15 144.34 12.5ZM213.19-2.1L213.19-2.1 212.39-3.25Q210.49-2.15 208.36-1.55 206.24-0.95 203.99-0.95L203.99-0.95Q200.59-0.95 197.61-2.25 194.64-3.55 192.44-5.8L192.44-5.8Q190.24-8.05 188.94-11.03 187.64-14 187.64-17.4L187.64-17.4Q187.64-20.8 188.94-23.83 190.24-26.85 192.49-29.15L192.49-29.15Q194.69-31.4 197.69-32.73 200.69-34.05 204.09-34.05L204.09-34.05Q206.14-34.05 208.11-33.52 210.09-33 211.89-32L211.89-32 211.89-27.3 213.24-27.3 213.24-32.9Q211.19-34.1 208.91-34.75 206.64-35.4 204.09-35.4L204.09-35.4Q200.39-35.4 197.14-33.98 193.89-32.55 191.49-30.15L191.49-30.15Q189.04-27.7 187.64-24.43 186.24-21.15 186.24-17.45L186.24-17.45Q186.24-13.75 187.64-10.5 189.04-7.25 191.49-4.85L191.49-4.85Q193.89-2.4 197.14-1 200.39 0.4 204.09 0.4L204.09 0.4Q206.64 0.4 208.91-0.28 211.19-0.95 213.19-2.1ZM233.53-2.55L233.53-2.55Q234.83-3.85 235.61-5.6 236.38-7.35 236.38-9.4L236.38-9.4Q236.38-11.4 235.61-13.2 234.83-15 233.53-16.35L233.53-16.35Q232.18-17.65 230.36-18.43 228.53-19.2 226.53-19.2L226.53-19.2Q224.48-19.2 222.71-18.43 220.93-17.65 219.63-16.35L219.63-16.35Q218.28-15 217.53-13.2 216.78-11.4 216.78-9.4L216.78-9.4Q216.78-7.35 217.53-5.6 218.28-3.85 219.63-2.55L219.63-2.55Q220.93-1.2 222.71-0.43 224.48 0.35 226.53 0.35L226.53 0.35Q228.53 0.35 230.36-0.43 232.18-1.2 233.53-2.55ZM220.63-3.5L220.63-3.5Q219.48-4.6 218.83-6.13 218.18-7.65 218.18-9.4L218.18-9.4Q218.18-11.1 218.83-12.63 219.48-14.15 220.63-15.3L220.63-15.3Q221.73-16.5 223.23-17.15 224.73-17.8 226.53-17.8L226.53-17.8Q228.23-17.8 229.76-17.15 231.28-16.5 232.43-15.3L232.43-15.3Q233.58-14.15 234.23-12.63 234.88-11.1 234.88-9.4L234.88-9.4Q234.88-7.65 234.23-6.13 233.58-4.6 232.43-3.5L232.43-3.5Q231.28-2.35 229.76-1.7 228.23-1.05 226.53-1.05L226.53-1.05Q224.73-1.05 223.23-1.7 221.73-2.35 220.63-3.5ZM258.13 0L263.13 0 263.13-1.35 259.43-1.35 259.43-37.5 254.48-37.5 254.48-36.15 258.03-36.15 258.03-18.95Q258.03-17.25 258.06-16.35 258.08-15.45 258.08-13.8L258.08-13.8Q257.63-14.9 256.86-15.85 256.08-16.8 254.98-17.55L254.98-17.55Q253.88-18.3 252.51-18.73 251.13-19.15 249.63-19.15L249.63-19.15Q247.58-19.15 245.81-18.38 244.03-17.6 242.73-16.3L242.73-16.3Q241.38-15 240.63-13.2 239.88-11.4 239.88-9.4L239.88-9.4Q239.88-7.35 240.63-5.6 241.38-3.85 242.73-2.55L242.73-2.55Q244.03-1.2 245.81-0.43 247.58 0.35 249.63 0.35L249.63 0.35Q251.18 0.35 252.56-0.08 253.93-0.5 255.03-1.3L255.03-1.3Q256.13-2 256.93-2.98 257.73-3.95 258.18-5.05L258.18-5.05Q258.18-4.35 258.16-3.7 258.13-3.05 258.13-2.35L258.13-2.35 258.13 0ZM249.63-17.8L249.63-17.8Q251.38-17.8 252.88-17.15 254.38-16.5 255.53-15.4L255.53-15.4Q256.73-14.25 257.38-12.7 258.03-11.15 258.03-9.4L258.03-9.4Q258.03-7.6 257.38-6.08 256.73-4.55 255.58-3.45L255.58-3.45Q254.43-2.3 252.91-1.68 251.38-1.05 249.63-1.05L249.63-1.05Q247.88-1.05 246.38-1.68 244.88-2.3 243.78-3.45L243.78-3.45Q242.63-4.55 241.96-6.08 241.28-7.6 241.28-9.4L241.28-9.4Q241.28-11.15 241.93-12.65 242.58-14.15 243.73-15.35L243.73-15.35Q244.83-16.5 246.36-17.15 247.88-17.8 249.63-17.8ZM276.38-17.8L276.38-17.8Q278.58-17.8 280.38-16.55 282.18-15.3 283.13-13.3L283.13-13.3Q279.43-11.8 275.73-10.33 272.03-8.85 268.33-7.35L268.33-7.35Q267.78-9.3 268.2-11.15 268.63-13 269.73-14.45L269.73-14.45Q270.88-15.95 272.6-16.88 274.33-17.8 276.38-17.8ZM282.98-2.3L282.98-2.3 282.08-3.35Q280.98-2.25 279.53-1.65 278.08-1.05 276.38-1.05L276.38-1.05Q273.78-1.05 271.73-2.43 269.68-3.8 268.73-6.05L268.73-6.05Q272.83-7.7 276.83-9.3 280.83-10.9 284.93-12.55L284.93-12.55Q284.43-14 283.6-15.18 282.78-16.35 281.78-17.2L281.78-17.2Q280.68-18.15 279.28-18.65 277.88-19.15 276.38-19.15L276.38-19.15Q274.33-19.15 272.55-18.38 270.78-17.6 269.48-16.3L269.48-16.3Q268.13-15 267.38-13.2 266.63-11.4 266.63-9.4L266.63-9.4Q266.63-7.35 267.38-5.6 268.13-3.85 269.48-2.5L269.48-2.5Q270.78-1.2 272.55-0.43 274.33 0.35 276.38 0.35L276.38 0.35Q278.33 0.35 280-0.35 281.68-1.05 282.98-2.3Z" opacity="1" transform="matrix(1,0,0,1,0,0)" fill="#000000" class="slogan-text-1" data-fill-palette-color="secondary" id="text-1"></path></svg></g></svg></g></svg></g></svg></g><g><svg viewBox="0 0 119.24927999999998 90.13026976744185" height="90.13026976744185" width="119.24927999999998"><g><svg xmlns="http://www.w3.org/2000/svg" xmlns:xlink="http://www.w3.org/1999/xlink" version="1.1" x="0" y="0" viewBox="6.5 18 86 65" enable-background="new 0 0 100 100" xml:space="preserve" height="90.13026976744185" width="119.24927999999998" class="icon-icon-0" data-fill-palette-color="accent" id="icon-0"><g fill="#5e1914" data-fill-palette-color="accent"><path d="M35.845 61.275l-10.72-5.09c-1.209-0.572-1.94-1.463-1.94-2.703v-0.318c0-1.24 0.731-2.131 1.94-2.704l10.72-5.089c0.381-0.191 0.731-0.318 1.177-0.318 1.018-0.031 1.94 0.859 1.94 2.004 0 0.922-0.509 1.559-1.336 1.94l-9.606 4.294 9.606 4.295c0.827 0.381 1.336 1.113 1.336 2.004 0 1.177-0.922 2.004-2.1 1.972C36.513 61.562 36.163 61.435 35.845 61.275z" fill="#000000" data-fill-palette-color="accent"></path><path d="M41.889 66.047l12.438-25.988c0.35-0.731 0.922-1.113 1.686-1.113 1.018 0 1.876 0.859 1.876 1.813 0 0.35-0.127 0.7-0.222 0.923L45.229 67.669c-0.35 0.731-0.922 1.113-1.686 1.113-1.018 0-1.876-0.858-1.876-1.813C41.667 66.619 41.793 66.27 41.889 66.047z" fill="#000000" data-fill-palette-color="accent"></path><path d="M64.155 45.371l10.72 5.089c1.208 0.573 1.94 1.464 1.94 2.704v0.318c0 1.24-0.731 2.131-1.94 2.703l-10.72 5.09c-0.381 0.191-0.731 0.318-1.177 0.318-1.018 0.031-1.94-0.859-1.94-2.004 0-0.923 0.509-1.559 1.336-1.94l9.606-4.295-9.606-4.294c-0.827-0.381-1.336-1.113-1.336-2.004 0-1.177 0.923-2.004 2.1-1.973C63.487 45.084 63.837 45.212 64.155 45.371z" fill="#000000" data-fill-palette-color="accent"></path></g><path d="M92.5 21c0-1.657-1.343-3-3-3h-80c-1.657 0-3 1.343-3 3v59c0 1.657 1.343 3 3 3h80c1.657 0 3-1.343 3-3V21zM26 20.833c1.196 0 2.167 0.97 2.167 2.167s-0.97 2.167-2.167 2.167-2.167-0.97-2.167-2.167S24.804 20.833 26 20.833zM20 20.833c1.196 0 2.167 0.97 2.167 2.167s-0.97 2.167-2.167 2.167-2.167-0.97-2.167-2.167S18.804 20.833 20 20.833zM14 20.833c1.196 0 2.167 0.97 2.167 2.167s-0.97 2.167-2.167 2.167-2.167-0.97-2.167-2.167S12.804 20.833 14 20.833zM88.5 79h-78V29h78V79z" fill="#000000" data-fill-palette-color="accent"></path></svg></g></svg></g></svg></g></svg></g></svg></g><defs></defs></svg><rect width="320" height="360" fill="none" stroke="none" visibility="hidden"></rect></g></svg></g></svg>